<svg xmlns="http://www.w3.org/2000/svg" version="1.1" viewBox="0 0 50 50">
    <circle cx="05" cy="05" r="2" fill="black" stroke="none"/>
    <circle cx="15" cy="05" r="2" fill="black" stroke="none"/>
    <circle cx="25" cy="05" r="2" fill="black" stroke="none"/>
    <circle cx="35" cy="05" r="2" fill="black" stroke="none"/>
    <circle cx="45" cy="05" r="2" fill="black" stroke="none"/>

    <circle cx="05" cy="15" r="2" fill="black" stroke="none"/>
    <circle cx="15" cy="15" r="2" fill="black" stroke="none"/>
    <circle cx="25" cy="15" r="2" fill="black" stroke="none"/>
    <circle cx="35" cy="15" r="2" fill="black" stroke="none"/>
    <circle cx="45" cy="15" r="2" fill="black" stroke="none"/>

    <circle cx="05" cy="25" r="2" fill="black" stroke="none"/>
    <circle cx="15" cy="25" r="2" fill="black" stroke="none"/>
    <circle cx="25" cy="25" r="2" fill="black" stroke="none"/>
    <circle cx="35" cy="25" r="2" fill="black" stroke="none"/>
    <circle cx="45" cy="25" r="2" fill="black" stroke="none"/>

    <circle cx="05" cy="35" r="2" fill="black" stroke="none"/>
    <circle cx="15" cy="35" r="2" fill="black" stroke="none"/>
    <circle cx="25" cy="35" r="2" fill="black" stroke="none"/>
    <circle cx="35" cy="35" r="2" fill="black" stroke="none"/>
    <circle cx="45" cy="35" r="2" fill="black" stroke="none"/>

    <circle cx="05" cy="45" r="2" fill="black" stroke="none"/>
    <circle cx="15" cy="45" r="2" fill="black" stroke="none"/>
    <circle cx="25" cy="45" r="2" fill="black" stroke="none"/>
    <circle cx="35" cy="45" r="2" fill="black" stroke="none"/>
    <circle cx="45" cy="45" r="2" fill="black" stroke="none"/>
</svg>